<svg width="1276" height="67" viewBox="0 0 1276 67" fill="none" xmlns="http://www.w3.org/2000/svg">
<path fill-rule="evenodd" clip-rule="evenodd" d="M0 0L30.8367 9.77083C60.61 19.5417 121.22 39.0833 181.83 37.6875C243.503 36.2917 304.113 13.9583 364.723 9.77083C425.333 5.58333 485.943 19.5417 546.553 29.3125C607.163 39.0833 668.837 44.6667 729.447 46.0625C790.057 47.4583 850.667 44.6667 911.277 40.4792C971.887 36.2917 1032.5 30.7083 1094.17 29.3125C1154.78 27.9167 1215.39 30.7083 1245.16 32.1042L1276 33.5V67H1245.16C1215.39 67 1154.78 67 1094.17 67C1032.5 67 971.887 67 911.277 67C850.667 67 790.057 67 729.447 67C668.837 67 607.163 67 546.553 67C485.943 67 425.333 67 364.723 67C304.113 67 243.503 67 181.83 67C121.22 67 60.61 67 30.8367 67H0L0 0Z" fill="#ffffff"/>
</svg>
